<?xml version="1.0" encoding="UTF-8"?>
<svg width="118px" height="51px" viewBox="0 0 118 51" version="1.1" xmlns="http://www.w3.org/2000/svg" xmlns:xlink="http://www.w3.org/1999/xlink">
    <title>063C885A-C559-4A59-BB39-194DB1EAD7A4@1x</title>
    <defs>
        <path d="M96.2567473,54.4100642 L96.1475026,55.1199143 L95.9836357,55.1199143 C95.3179264,55.1199143 95.1803038,55.311881 95.0756866,55.9657675 L95.0550565,56.1027837 L95.0004342,56.375803 L95.9290134,56.375803 L95.8197688,57.0310493 L94.8911896,57.0310493 L94.2903443,60.4164882 C94.0827795,61.5577088 93.7766215,61.9597297 92.8567204,61.9970787 L92.7062974,62 L92.3239413,62 L92.4331859,61.2901499 L92.5970528,61.2901499 C93.1578418,61.2901499 93.3855561,61.1474518 93.5022456,60.551291 L93.525632,60.4164882 L94.0718551,57.0310493 L93.2525205,57.0310493 L93.3617651,56.375803 L94.1810997,56.375803 L94.235722,56.0481799 C94.4447117,54.7946653 94.7536529,54.4404112 95.8317869,54.4119761 L95.9836357,54.4100642 L96.2567473,54.4100642 Z M91.0676283,56.2665953 C91.7230959,56.2665953 92.3239413,56.4850107 92.7062974,56.9764454 C93.0886536,57.4678801 93.2525205,58.1231263 93.1432759,58.8329764 C92.979409,60.0342612 91.9962075,60.8533191 90.7945168,60.7987152 C90.1390491,60.7987152 89.5382038,60.5256959 89.1558476,60.0888651 C88.7734915,59.5974304 88.6096246,58.9421842 88.7188692,58.232334 C88.8827361,57.0856531 89.9205599,56.2665953 91.0676283,56.2665953 Z M100.571909,54.3554604 C102.374445,54.3554604 103.794625,55.7751606 103.794625,57.5770878 C103.794625,59.379015 102.374445,60.7987152 100.571909,60.7987152 C98.8239956,60.7987152 97.4038157,59.379015 97.4038157,57.5770878 C97.4038157,55.8297645 98.8239956,54.3554604 100.571909,54.3554604 Z M113.244284,56.3211991 C113.790507,56.3211991 114.227486,56.5396146 114.500597,56.8126338 L114.500597,56.4304069 L115.647665,56.4304069 L115.647665,60.6895075 L114.500597,60.6895075 L114.500597,60.1980728 C114.227486,60.5256959 113.790507,60.7441113 113.189662,60.7441113 C112.315705,60.7987152 111.168636,60.0888651 111.168636,58.5599572 C111.168636,57.0310493 112.261083,56.3211991 113.244284,56.3211991 Z M122.639321,56.3211991 C123.185544,56.3211991 123.622522,56.5396146 123.895634,56.8126338 L123.895634,56.4304069 L125.042702,56.4304069 L125.042702,60.6895075 L123.895634,60.6895075 L123.895634,60.1980728 C123.622522,60.5256959 123.185544,60.7441113 122.584698,60.7441113 C121.710741,60.7987152 120.563673,60.0888651 120.563673,58.5599572 C120.563673,57.0310493 121.656119,56.3211991 122.639321,56.3211991 Z M117.340957,54.4646681 L117.340957,56.9218415 C117.614068,56.5942184 118.051047,56.375803 118.542648,56.375803 C119.525849,56.375803 120.181317,57.0310493 120.181317,58.1231263 L120.181317,60.7441113 L118.979626,60.7441113 L118.979626,58.2869379 C118.979626,57.6862955 118.706515,57.3586724 118.214914,57.3586724 C117.777935,57.3586724 117.395579,57.6862955 117.395579,58.3961456 L117.395579,60.7441113 L116.248511,60.7441113 L116.248511,54.4646681 L117.340957,54.4646681 Z M109.092989,56.3211991 C110.185435,56.3211991 110.731658,56.9764454 110.731658,58.0685225 L110.731658,60.6895075 L109.529967,60.6895075 L109.529967,58.232334 C109.529967,57.6862955 109.311478,57.3040685 108.765255,57.3040685 C108.328277,57.3040685 108.000543,57.6316916 108.000543,58.3415418 L108.000543,60.6895075 L106.798852,60.6895075 L106.798852,58.232334 C106.798852,57.6862955 106.580363,57.3040685 106.03414,57.3040685 C105.597161,57.3040685 105.269428,57.6316916 105.269428,58.3415418 L105.269428,60.6895075 L104.122359,60.6895075 L104.122359,56.4304069 L105.32405,56.4304069 L105.32405,56.8672377 C105.597161,56.5396146 105.979518,56.3211991 106.471118,56.3211991 C107.071964,56.3211991 107.508942,56.5396146 107.782054,56.9764454 C108.055165,56.5396146 108.546766,56.3211991 109.092989,56.3211991 Z M91.0676283,56.9764454 C90.2482937,56.9764454 89.5382038,57.5770878 89.4289591,58.3961456 C89.3743368,58.8329764 89.4835814,59.3244111 89.756693,59.5974304 C90.0298045,59.9250535 90.4121606,60.0888651 90.8491391,60.0888651 C91.6202775,60.0888651 92.2946456,59.5568082 92.4623927,58.856883 L92.4878082,58.7237687 L92.5006103,58.5578242 C92.5125589,58.1666388 92.399047,57.7545503 92.1600744,57.4678801 C91.8869629,57.140257 91.5046067,56.9764454 91.0676283,56.9764454 Z M113.462773,57.4132762 C112.807306,57.4132762 112.315705,57.9047109 112.315705,58.5599572 C112.315705,59.2152034 112.807306,59.7066381 113.462773,59.7066381 C114.063619,59.7066381 114.555219,59.2152034 114.555219,58.5599572 C114.555219,57.9047109 114.118241,57.4132762 113.462773,57.4132762 Z M122.85781,57.4132762 C122.202342,57.4132762 121.710741,57.9047109 121.710741,58.5599572 C121.710741,59.2152034 122.202342,59.7066381 122.85781,59.7066381 C123.458655,59.7066381 123.950256,59.2152034 123.950256,58.5599572 C123.950256,57.9047109 123.513277,57.4132762 122.85781,57.4132762 Z M100.571909,55.5567452 C99.4248409,55.5567452 98.5508841,56.4850107 98.5508841,57.5770878 C98.5508841,58.7237687 99.4248409,59.5974304 100.571909,59.5974304 C101.718978,59.5974304 102.592935,58.7237687 102.592935,57.5770878 C102.592935,56.4304069 101.718978,55.5567452 100.571909,55.5567452 Z M124.98808,49.0588865 C126.244393,49.0588865 127.227594,50.0417559 127.227594,51.2976445 C127.227594,52.5535332 126.244393,53.5364026 124.98808,53.5364026 C123.731767,53.5364026 122.748565,52.5535332 122.748565,51.2976445 C122.748565,50.0417559 123.731767,49.0588865 124.98808,49.0588865 Z M99.8618194,49.1134904 C100.845021,49.1134904 101.391244,49.4957173 101.664355,50.0963597 L100.626532,50.5331906 C100.517287,50.2601713 100.244176,50.0417559 99.8618194,50.0417559 C99.4794632,50.0417559 99.3155963,50.2055675 99.3155963,50.369379 C99.3155963,50.5331906 99.5887078,50.6423983 100.189553,50.751606 C100.899643,50.9154176 101.718978,51.133833 101.718978,52.0620985 C101.718978,52.6627409 101.118132,53.4817987 99.9164417,53.4817987 C98.9332402,53.5364026 98.2777725,53.0995717 98.004661,52.3897216 L99.0971071,51.9528908 C99.260974,52.3351178 99.5887078,52.5535332 99.971064,52.5535332 C100.35342,52.5535332 100.571909,52.3897216 100.571909,52.1713062 C100.571909,51.9528908 100.134931,51.8982869 99.6433302,51.7890792 C98.8786179,51.6252677 98.1139056,51.4068522 98.1139056,50.4785867 C98.1139056,49.7687366 98.8239956,49.1134904 99.8618194,49.1134904 Z M96.1475026,49.1680942 L96.1475026,49.8779443 C96.3659919,49.4411135 96.748348,49.1680942 97.3491933,49.1680942 L97.7861718,49.1680942 L97.7861718,50.3147752 L97.0760818,50.3147752 C96.4752365,50.3147752 96.2021249,50.6423983 96.2021249,51.4614561 L96.2021249,53.4817987 L95.0550565,53.4817987 L95.0550565,49.1680942 L96.1475026,49.1680942 Z M152.299232,49.1134904 C153.282434,49.1134904 153.937901,49.7687366 153.937901,50.8608137 L153.937901,53.4817987 L152.73621,53.4817987 L152.73621,50.9700214 C152.73621,50.4239829 152.463099,50.0417559 151.971498,50.0417559 C151.53452,50.0417559 151.152164,50.369379 151.152164,51.0792291 L151.152164,53.4271949 L150.005095,53.4271949 L150.005095,49.1680942 L151.097541,49.1680942 L151.097541,49.6595289 C151.370653,49.3319058 151.807631,49.1134904 152.299232,49.1134904 Z M129.904087,49.1134904 C130.887289,49.1134904 131.542756,49.7687366 131.542756,50.8608137 L131.542756,53.4817987 L130.341065,53.4817987 L130.341065,50.9700214 C130.341065,50.4239829 130.067954,50.0417559 129.576353,50.0417559 C129.139375,50.0417559 128.757019,50.369379 128.757019,51.0792291 L128.757019,53.4271949 L127.60995,53.4271949 L127.60995,49.1680942 L128.702396,49.1680942 L128.702396,49.6595289 C128.975508,49.3319058 129.412486,49.1134904 129.904087,49.1134904 Z M92.6516751,47.2023555 L92.6516751,48.3490364 L90.302916,48.3490364 L90.302916,49.7687366 L92.6516751,49.7687366 L92.6516751,50.9154176 L90.302916,50.9154176 L90.302916,53.4817987 L89.1012253,53.4817987 L89.1012253,47.2023555 L92.6516751,47.2023555 Z M133.891515,49.0588865 C134.437738,49.0588865 134.874717,49.2773019 135.147828,49.5503212 L135.147828,49.1134904 L136.294897,49.1134904 L136.294897,53.372591 L135.147828,53.372591 L135.147828,52.8811563 C134.874717,53.2087794 134.437738,53.4271949 133.836893,53.4271949 C132.962936,53.5364026 131.815868,52.8265525 131.815868,51.2976445 C131.815868,49.7687366 132.908314,49.0588865 133.891515,49.0588865 Z M146.891624,49.0588865 C147.437847,49.0588865 147.874825,49.2773019 148.147937,49.5503212 L148.147937,49.1134904 L149.295005,49.1134904 L149.295005,53.372591 L148.147937,53.372591 L148.147937,52.8811563 C147.874825,53.2087794 147.437847,53.4271949 146.837002,53.4271949 C146.017667,53.5364026 144.815976,52.8265525 144.815976,51.2976445 C144.815976,49.7687366 145.908422,49.0588865 146.891624,49.0588865 Z M114.882953,49.0588865 C115.429176,49.0588865 115.866155,49.2773019 116.139266,49.5503212 L116.139266,49.1134904 L117.286335,49.1134904 L117.286335,53.372591 L116.139266,53.372591 L116.139266,52.8811563 C115.866155,53.2087794 115.429176,53.4271949 114.828331,53.4271949 C114.008996,53.5364026 112.807306,52.8265525 112.807306,51.2976445 C112.807306,49.7687366 113.899752,49.0588865 114.882953,49.0588865 Z M103.90387,48.0214133 L103.90387,49.1680942 L104.723205,49.1680942 L104.723205,50.2055675 L103.90387,50.2055675 L103.90387,51.5706638 C103.90387,52.2259101 104.013115,52.3351178 104.723205,52.3351178 L104.723205,53.4271949 L104.559338,53.4271949 C103.19378,53.4271949 102.756802,52.990364 102.756802,51.5706638 L102.756802,50.2055675 L102.046712,50.2055675 L102.046712,49.1680942 L102.756802,49.1680942 L102.756802,48.0214133 L103.90387,48.0214133 Z M94.3449666,49.1680942 L94.3449666,53.4271949 L93.1978982,53.4271949 L93.1978982,49.1680942 L94.3449666,49.1680942 Z M108.546766,47.2023555 L111.223259,51.4068522 L111.223259,47.2023555 L112.424949,47.2023555 L112.424949,53.4271949 L111.114014,53.4271949 L108.382899,49.1134904 L108.382899,53.4271949 L107.181208,53.4271949 L107.181208,47.2023555 L108.546766,47.2023555 Z M119.744338,48.0214133 L119.744338,49.1680942 L120.563673,49.1680942 L120.563673,50.2055675 L119.744338,50.2055675 L119.744338,51.5706638 C119.744338,52.2259101 119.853583,52.3351178 120.563673,52.3351178 L120.563673,53.4271949 L120.399806,53.4271949 C119.034248,53.4271949 118.59727,52.990364 118.59727,51.5706638 L118.59727,50.2055675 L117.88718,50.2055675 L117.88718,49.1680942 L118.59727,49.1680942 L118.59727,48.0214133 L119.744338,48.0214133 Z M122.256964,49.1680942 L122.256964,53.4271949 L121.109896,53.4271949 L121.109896,49.1680942 L122.256964,49.1680942 Z M138.097433,47.2023555 L138.097433,53.4271949 L136.950364,53.4271949 L136.950364,47.2023555 L138.097433,47.2023555 Z M155.685815,47.2023555 L155.685815,51.0792291 L157.269862,49.1680942 L158.635419,49.1680942 L157.105995,51.0246253 L158.744664,53.4271949 L157.488351,53.4271949 L156.232038,51.7344754 L155.685815,52.3897216 L155.685815,53.4271949 L154.538747,53.4271949 L154.538747,47.2023555 L155.685815,47.2023555 Z M142.139483,47.2023555 C143.505041,47.2023555 144.324376,47.8029979 144.324376,48.9496788 C144.324376,49.4957173 144.105886,49.8779443 143.668908,50.1509636 C144.215131,50.4239829 144.542865,50.9154176 144.542865,51.5706638 C144.542865,52.8265525 143.668908,53.4271949 142.30335,53.4271949 L140.17308,53.4271949 L140.17308,47.2023555 L142.139483,47.2023555 Z M147.110113,50.1509636 C146.454645,50.1509636 145.963045,50.6423983 145.963045,51.2976445 C145.963045,51.9528908 146.454645,52.4443255 147.110113,52.4443255 C147.765581,52.4443255 148.202559,51.9528908 148.202559,51.2976445 C148.202559,50.6423983 147.765581,50.1509636 147.110113,50.1509636 Z M134.110005,50.1509636 C133.454537,50.1509636 132.962936,50.6423983 132.962936,51.2976445 C132.962936,51.9528908 133.454537,52.4443255 134.110005,52.4443255 C134.71085,52.4443255 135.202451,51.9528908 135.202451,51.2976445 C135.202451,50.6423983 134.765472,50.1509636 134.110005,50.1509636 Z M115.101442,50.1509636 C114.445975,50.1509636 113.954374,50.6423983 113.954374,51.2976445 C113.954374,51.9528908 114.445975,52.4443255 115.101442,52.4443255 C115.75691,52.4443255 116.193889,51.9528908 116.193889,51.2976445 C116.193889,50.6423983 115.75691,50.1509636 115.101442,50.1509636 Z M124.933457,50.2055675 C124.332612,50.2055675 123.841011,50.6970021 123.841011,51.2976445 C123.841011,51.8982869 124.27799,52.3897216 124.933457,52.3897216 C125.534303,52.4443255 126.025903,51.8982869 126.025903,51.2976445 C126.025903,50.6970021 125.534303,50.2055675 124.933457,50.2055675 Z M142.248728,50.8062099 L141.374771,50.8062099 L141.374771,52.3351178 L142.30335,52.3351178 C143.01344,52.3351178 143.341174,52.0620985 143.341174,51.5706638 C143.341174,51.0792291 143.122685,50.8062099 142.248728,50.8062099 Z M142.139483,48.2944325 L141.374771,48.2944325 L141.374771,49.6595289 L142.139483,49.6595289 C142.849573,49.6595289 143.122685,49.3865096 143.122685,48.9496788 C143.122685,48.512848 142.849573,48.2944325 142.139483,48.2944325 Z M121.656119,47.3115632 C122.018124,47.3115632 122.311587,47.6049269 122.311587,47.9668094 C122.311587,48.3286919 122.018124,48.6220557 121.656119,48.6220557 C121.294114,48.6220557 121.000651,48.3286919 121.000651,47.9668094 C121.000651,47.6049269 121.294114,47.3115632 121.656119,47.3115632 Z M93.8533658,47.3115632 C94.2153706,47.3115632 94.5088335,47.6049269 94.5088335,47.9668094 C94.5088335,48.3286919 94.2153706,48.6220557 93.8533658,48.6220557 C93.491361,48.6220557 93.1978982,48.3286919 93.1978982,47.9668094 C93.1978982,47.6049269 93.491361,47.3115632 93.8533658,47.3115632 Z M61.5169614,11 C71.7859547,11 80.0339227,19.2997859 80.088545,29.4561028 C80.088545,37.9743041 74.353203,45.127409 66.5422134,47.3115632 L66.5422134,47.3115632 L66.5422134,41.4689507 C71.2397316,39.503212 74.5170699,34.9164882 74.5170699,29.5107066 C74.5170699,22.3576017 68.6724833,16.5695931 61.5169614,16.5695931 C54.3614394,16.5695931 48.5714751,22.3576017 48.5714751,29.5107066 C48.5714751,35.6809422 52.8320149,40.8137045 58.5673569,42.0695931 L58.5673569,42.0695931 L58.5673569,27.1627409 L55.2900186,27.1627409 L55.2900186,23.2858672 L55.2900186,23.2858672 L55.3350796,23.2854734 C55.7578447,23.2764999 59.0423335,23.0911926 60.3698929,19.5182013 L60.3698929,19.5182013 L64.6304327,19.5182013 L64.6304327,47.748394 C63.5926089,47.9122056 62.5547851,48.0214133 61.5169614,48.0214133 C51.3025903,48.0214133 43,39.7216274 43,29.5107066 C43,19.2997859 51.3025903,11 61.5169614,11 Z M124.605723,15.4229122 L124.605723,26.5074946 C125.862036,25.0331906 127.828439,23.9957173 130.45031,23.9957173 C134.874717,23.9957173 139.899969,27.2173448 139.899969,34.1520343 C139.899969,40.9775161 134.71085,44.2537473 130.559555,44.2537473 C128.099275,44.2537473 126.090483,43.3510774 124.821629,41.930208 L124.660346,41.74197 L124.660346,43.8169165 L119.30736,43.8169165 L119.30736,15.4229122 L124.605723,15.4229122 Z M151.0378,23.9892228 L151.316031,23.9957173 C156.450527,24.1595289 160.711067,28.3640257 160.984179,33.5513919 C161.311912,39.503212 156.50515,44.4175589 150.551318,44.1991435 C145.416822,43.9807281 141.156282,39.7762313 140.88317,34.643469 C140.565678,28.8776432 145.066791,24.0854618 150.761341,23.9901533 L151.0378,23.9892228 Z M98.1685279,15.4229122 L98.1685279,20.391863 C94.9656746,20.391863 94.5277087,20.8090635 94.5094555,23.682058 L94.5088335,23.8865096 L94.5088335,24.3779443 L104.668582,24.3779443 L104.668582,26.5620985 C105.870273,24.9785867 107.782054,23.9957173 110.021568,23.9957173 C114.519876,23.9957173 117.23314,26.8298274 117.492229,31.6747767 L117.504824,31.9678801 L117.504824,43.8715203 L112.097216,43.8715203 L112.097216,32.6777302 C112.097216,30.0567452 110.840903,28.5278373 108.492144,28.5278373 C106.528862,28.5278373 104.874854,29.8675707 104.781942,32.9474853 L104.777827,33.2237687 L104.777827,43.8715203 L99.4248409,43.8715203 L99.4248409,29.1830835 L94.5088335,29.1830835 L94.5088335,43.8715203 L89.1558476,43.8715203 L89.1558476,29.1830835 L85.823887,29.1830835 L85.823887,24.3779443 L89.1558476,24.3779443 L89.1558476,23.8865096 C89.1558476,17.6009014 91.1650788,15.4909682 97.4204738,15.424541 L97.7315495,15.4229122 L98.1685279,15.4229122 Z M124.551101,33.0599572 C124.004878,36.3907923 126.244393,39.3394004 129.467109,39.3394004 C132.416713,39.3394004 134.656228,37.0460385 134.656228,34.0428266 C134.656228,31.1488223 132.525958,28.9646681 129.685598,28.8554604 C127.227594,28.7462527 124.98808,30.6027837 124.551101,33.0599572 Z M150.879052,29.0738758 C148.311804,29.0738758 146.236156,31.2034261 146.072289,33.7152034 C145.8538,36.6638116 148.038692,39.1755889 150.933674,39.1755889 C153.66479,39.1755889 155.849682,36.882227 155.849682,34.1520343 C155.849682,31.3672377 153.610167,29.0192719 150.879052,29.0738758 Z" id="path-1"></path>
    </defs>
    <g id="[Symbols]:-Logos" stroke="none" stroke-width="1" fill="none" fill-rule="evenodd">
        <g id="Logos" transform="translate(-66.000000, -450.000000)">
            <g id="Group" transform="translate(23.000000, 439.000000)">
                <mask id="mask-2" fill="white">
                    <use xlink:href="#path-1"></use>
                </mask>
                <use id="Color" fill="#006341" xlink:href="#path-1"></use>
            </g>
        </g>
    </g>
</svg>